<svg t="1608035254148" class="icon" viewBox="0 0 1024 1024" version="1.1" xmlns="http://www.w3.org/2000/svg" p-id="1227" width="200" height="200"><path d="M203.264 892.928c-10.752 0-20.992-5.632-26.112-15.872-7.168-14.336-1.536-32.256 12.8-39.424l299.008-153.088c1.024-0.512 1.536-1.024 2.56-1.024 13.312-6.656 30.208-6.656 44.032 0.512l2.048 1.024 297.472 153.088c14.336 7.168 19.968 25.088 12.8 39.424-7.168 14.336-25.088 19.968-39.424 12.8l-294.912-152.064c0 0 0 0-0.512 0l-295.936 151.552C211.968 891.904 207.36 892.928 203.264 892.928z" p-id="1228" fill="#2c2c2c"></path><path d="M629.248 315.904 394.752 315.904c-16.384 0-29.184-13.312-29.184-29.184 0-16.384 13.312-29.184 29.184-29.184l234.496 0c16.384 0 29.184 13.312 29.184 29.184C658.432 303.104 645.632 315.904 629.248 315.904z" p-id="1229" fill="#2c2c2c"></path><path d="M749.056 617.472l-117.248 0c-16.384 0-29.184-13.312-29.184-29.184s13.312-29.184 29.184-29.184l117.248 0c16.384 0 29.184 13.312 29.184 29.184S765.44 617.472 749.056 617.472z" p-id="1230" fill="#2c2c2c"></path><path d="M690.688 676.352c-16.384 0-29.184-13.312-29.184-29.184l0-117.248c0-16.384 13.312-29.184 29.184-29.184s29.184 13.312 29.184 29.184l0 117.248C719.872 663.04 706.56 676.352 690.688 676.352z" p-id="1231" fill="#2c2c2c"></path><path d="M828.416 898.048c-16.384 0-29.184-13.312-29.184-29.184L799.232 231.424c0-8.192-6.656-14.848-14.848-14.848L239.616 216.576c-8.192 0-14.848 6.656-14.848 14.848l0 636.928c0 16.384-13.312 29.184-29.184 29.184-16.384 0-29.184-13.312-29.184-29.184L166.4 231.424c0-40.448 32.768-73.216 73.216-73.216l544.768 0c40.448 0 73.216 32.768 73.216 73.216l0 636.928C857.6 884.736 844.8 898.048 828.416 898.048z" p-id="1232" fill="#2c2c2c"></path></svg>